<svg width="16" height="17" viewBox="0 0 16 17" fill="none" xmlns="http://www.w3.org/2000/svg">
<path opacity="0.4" d="M5.8265 14.3649L5.82663 14.365C6.43743 14.9527 7.21875 15.2453 7.99994 15.2453C8.78156 15.2453 9.56176 14.9525 10.1649 14.3666L10.1667 14.3649C12.046 12.5579 13.9774 9.82405 13.259 6.65585C12.6227 3.85695 10.1859 2.57861 7.99994 2.57861H7.99994H7.99993H7.99993H7.99993H7.99992H7.99992H7.99991H7.99991H7.99991H7.9999H7.9999H7.99989H7.99989H7.99988H7.99988H7.99988H7.99987H7.99987H7.99986H7.99986H7.99985H7.99985H7.99984H7.99984H7.99984H7.99983H7.99983H7.99982H7.99981H7.99981H7.9998H7.9998H7.99979H7.99978H7.99978H7.99977H7.99976H7.99976H7.99975H7.99975H7.99974H7.99974H7.99973H7.99973H7.99973H7.99972H7.99972H7.99971H7.99971H7.99971H7.9997H7.9997H7.99969H7.99969H7.99968H7.99968H7.99968H7.99967H7.99967H7.99966H7.99966H7.99965H7.99965H7.99964H7.99964H7.99963H7.99963H7.99962H7.99962H7.99961H7.99961H7.9996H7.9996H7.99959H7.99958H7.99958H7.99957H7.99957H7.99956H7.99956H7.99955H7.99954H7.99954H7.99953H7.99953H7.99952H7.99951H7.99951H7.9995H7.99949H7.99949H7.99948H7.99948H7.99947H7.99946H7.99945H7.99945H7.99944H7.99943H7.99943H7.99942H7.99941H7.99941H7.9994H7.99939H7.99938H7.99938H7.99937H7.99936H7.99935H7.99935H7.99934H7.99933H7.99932H7.99931H7.99931H7.9993H7.99929H7.99928H7.99927H7.99926H7.99926H7.99925H7.99924H7.99923H7.99922H7.99921H7.9992H7.99919H7.99918H7.99917H7.99917H7.99916H7.99915H7.99914H7.99913H7.99912H7.99911H7.9991H7.99909H7.99908H7.99907H7.99906H7.99905H7.99904H7.99903H7.99902H7.99901H7.999H7.99899H7.99897H7.99896H7.99895H7.99894H7.99893H7.99892H7.99891H7.9989H7.99889H7.99887H7.99886H7.99885H7.99884H7.99883H7.99882H7.9988H7.99879H7.99878H7.99877H7.99875H7.99874H7.99873H7.99872H7.9987H7.99869H7.99868H7.99867H7.99865H7.99864H7.99863H7.99861H7.9986H7.99859H7.99857H7.99856H7.99855H7.99853H7.99852H7.9985H7.99849H7.99848H7.99846H7.99845H7.99843H7.99842H7.9984H7.99839H7.99837H7.99836H7.99834H7.99833H7.99831H7.9983H7.99828H7.99827H7.99825H7.99824H7.99822H7.9982H7.99819H7.99817H7.99816H7.99814H7.99812H7.99811H7.99809H7.99807H7.99806H7.99804H7.99802H7.99801H7.99799H7.99797H7.99795H7.99794H7.99792H7.9979H7.99788H7.99787H7.99785H7.99783H7.99781H7.99779H7.99778H7.99776H7.99774H7.99772H7.9977H7.99768H7.99766H7.99764H7.99762H7.9976H7.99759H7.99757H7.99755H7.99753H7.99751H7.99749H7.99747H7.99745H7.99743H7.99741H7.99738H7.99736H7.99734H7.99732H7.9973H7.99728H7.99726H7.99724H7.99722H7.99719H7.99717H7.99715H7.99713H7.99711H7.99708H7.99706H7.99704H7.99702H7.99699H7.99697H7.99695H7.99693H7.9969H7.99688H7.99686H7.99683H7.99681H7.99679H7.99676H7.99674H7.99671H7.99669H7.99667H7.99664H7.99662H7.99659H7.99657H7.99654H7.99652H7.99649H7.99647H7.99644H7.99642H7.99639H7.99637H7.99634H7.99631H7.99629H7.99626H7.99623H7.99621H7.99618H7.99616H7.99613H7.9961H7.99607H7.99605H7.99602H7.99599H7.99596H7.99594H7.99591H7.99588H7.99585H7.99582H7.9958H7.99577H7.99574H7.99571H7.99568H7.99565H7.99562H7.99559H7.99556H7.99553H7.9955H7.99548H7.99545H7.99542H7.99538H7.99535H7.99532H7.99529H7.99526H7.99523H7.9952H7.99517H7.99514H7.99511H7.99508H7.99504H7.99501H7.99498H7.99495H7.99492H7.99488H7.99485H7.99482H7.99478H7.99475H7.99472H7.99469H7.99465H7.99462H7.99458H7.99455H7.99452H7.99448H7.99445H7.99441H7.99438H7.99434H7.99431H7.99427H7.99424H7.9942H7.99417H7.99413H7.9941H7.99406H7.99403H7.99399H7.99395H7.99392H7.99388H7.99384H7.99381H7.99377H7.99373H7.9937H7.99366H7.99362H7.99358H7.99354H7.99351H7.99347H7.99343H7.99339H7.99335H7.99331H7.99327C5.81269 2.57861 3.37022 3.85138 2.73423 6.64918L5.8265 14.3649ZM5.8265 14.3649C3.94759 12.5582 2.0159 9.81777 2.73417 6.64942L5.8265 14.3649Z" fill="#F97316" stroke="#F97316"/>
<path d="M9.60002 7.7853C9.60002 8.66896 8.88368 9.3853 8.00002 9.3853C7.11637 9.3853 6.40002 8.66896 6.40002 7.7853C6.40002 6.90165 7.11637 6.1853 8.00002 6.1853C8.88368 6.1853 9.60002 6.90165 9.60002 7.7853Z" fill="#F97316" stroke="#F97316"/>
</svg>
